<?xml version="1.0" encoding="utf-8" standalone="no"?>
<!DOCTYPE svg PUBLIC "-//W3C//DTD SVG 1.1//EN"
  "http://www.w3.org/Graphics/SVG/1.1/DTD/svg11.dtd">
<svg height="345.6pt" version="1.1" viewBox="0 0 460.8 345.6" width="460.8pt" xmlns="http://www.w3.org/2000/svg" xmlns:xlink="http://www.w3.org/1999/xlink">
 <metadata>
  <rdf:RDF xmlns:cc="http://creativecommons.org/ns#" xmlns:dc="http://purl.org/dc/elements/1.1/" xmlns:rdf="http://www.w3.org/1999/02/22-rdf-syntax-ns#">
   <cc:Work>
    <dc:type rdf:resource="http://purl.org/dc/dcmitype/StillImage"/>
    <dc:date>2023-03-27T13:12:03.161746</dc:date>
    <dc:format>image/svg+xml</dc:format>
    <dc:creator>
     <cc:Agent>
      <dc:title>Matplotlib v3.4.2, https://matplotlib.org/</dc:title>
     </cc:Agent>
    </dc:creator>
   </cc:Work>
  </rdf:RDF>
 </metadata>
 <defs>
  <style type="text/css">*{stroke-linecap:butt;stroke-linejoin:round;}</style>
 </defs>
 <g id="figure_1">
  <g id="patch_1">
   <path d="M 0 345.6 
L 460.8 345.6 
L 460.8 0 
L 0 0 
z
" style="fill:#ffffff;"/>
  </g>
  <g id="axes_1">
   <g id="patch_2">
    <path d="M 57.6 307.584 
L 414.72 307.584 
L 414.72 41.472 
L 57.6 41.472 
z
" style="fill:#ffffff;"/>
   </g>
   <g id="matplotlib.axis_1">
    <g id="xtick_1">
     <g id="line2d_1">
      <path clip-path="url(#p55b1cac4a2)" d="M 68.999135 307.584 
L 68.999135 41.472 
" style="fill:none;stroke:#b0b0b0;stroke-linecap:square;stroke-width:0.8;"/>
     </g>
     <g id="line2d_2">
      <defs>
       <path d="M 0 0 
L 0 3.5 
" id="mc0ee158a9f" style="stroke:#000000;stroke-width:0.8;"/>
      </defs>
      <g>
       <use style="stroke:#000000;stroke-width:0.8;" x="68.999135" xlink:href="#mc0ee158a9f" y="307.584"/>
      </g>
     </g>
     <g id="text_1">
      <!-- −0.4 -->
      <g transform="translate(56.857729 322.182437)scale(0.1 -0.1)">
       <defs>
        <path d="M 678 2272 
L 4684 2272 
L 4684 1741 
L 678 1741 
L 678 2272 
z
" id="DejaVuSans-2212" transform="scale(0.015625)"/>
        <path d="M 2034 4250 
Q 1547 4250 1301 3770 
Q 1056 3291 1056 2328 
Q 1056 1369 1301 889 
Q 1547 409 2034 409 
Q 2525 409 2770 889 
Q 3016 1369 3016 2328 
Q 3016 3291 2770 3770 
Q 2525 4250 2034 4250 
z
M 2034 4750 
Q 2819 4750 3233 4129 
Q 3647 3509 3647 2328 
Q 3647 1150 3233 529 
Q 2819 -91 2034 -91 
Q 1250 -91 836 529 
Q 422 1150 422 2328 
Q 422 3509 836 4129 
Q 1250 4750 2034 4750 
z
" id="DejaVuSans-30" transform="scale(0.015625)"/>
        <path d="M 684 794 
L 1344 794 
L 1344 0 
L 684 0 
L 684 794 
z
" id="DejaVuSans-2e" transform="scale(0.015625)"/>
        <path d="M 2419 4116 
L 825 1625 
L 2419 1625 
L 2419 4116 
z
M 2253 4666 
L 3047 4666 
L 3047 1625 
L 3713 1625 
L 3713 1100 
L 3047 1100 
L 3047 0 
L 2419 0 
L 2419 1100 
L 313 1100 
L 313 1709 
L 2253 4666 
z
" id="DejaVuSans-34" transform="scale(0.015625)"/>
       </defs>
       <use xlink:href="#DejaVuSans-2212"/>
       <use x="83.789062" xlink:href="#DejaVuSans-30"/>
       <use x="147.412109" xlink:href="#DejaVuSans-2e"/>
       <use x="179.199219" xlink:href="#DejaVuSans-34"/>
      </g>
     </g>
    </g>
    <g id="xtick_2">
     <g id="line2d_3">
      <path clip-path="url(#p55b1cac4a2)" d="M 140.853959 307.584 
L 140.853959 41.472 
" style="fill:none;stroke:#b0b0b0;stroke-linecap:square;stroke-width:0.8;"/>
     </g>
     <g id="line2d_4">
      <g>
       <use style="stroke:#000000;stroke-width:0.8;" x="140.853959" xlink:href="#mc0ee158a9f" y="307.584"/>
      </g>
     </g>
     <g id="text_2">
      <!-- −0.2 -->
      <g transform="translate(128.712553 322.182437)scale(0.1 -0.1)">
       <defs>
        <path d="M 1228 531 
L 3431 531 
L 3431 0 
L 469 0 
L 469 531 
Q 828 903 1448 1529 
Q 2069 2156 2228 2338 
Q 2531 2678 2651 2914 
Q 2772 3150 2772 3378 
Q 2772 3750 2511 3984 
Q 2250 4219 1831 4219 
Q 1534 4219 1204 4116 
Q 875 4013 500 3803 
L 500 4441 
Q 881 4594 1212 4672 
Q 1544 4750 1819 4750 
Q 2544 4750 2975 4387 
Q 3406 4025 3406 3419 
Q 3406 3131 3298 2873 
Q 3191 2616 2906 2266 
Q 2828 2175 2409 1742 
Q 1991 1309 1228 531 
z
" id="DejaVuSans-32" transform="scale(0.015625)"/>
       </defs>
       <use xlink:href="#DejaVuSans-2212"/>
       <use x="83.789062" xlink:href="#DejaVuSans-30"/>
       <use x="147.412109" xlink:href="#DejaVuSans-2e"/>
       <use x="179.199219" xlink:href="#DejaVuSans-32"/>
      </g>
     </g>
    </g>
    <g id="xtick_3">
     <g id="line2d_5">
      <path clip-path="url(#p55b1cac4a2)" d="M 212.708783 307.584 
L 212.708783 41.472 
" style="fill:none;stroke:#b0b0b0;stroke-linecap:square;stroke-width:0.8;"/>
     </g>
     <g id="line2d_6">
      <g>
       <use style="stroke:#000000;stroke-width:0.8;" x="212.708783" xlink:href="#mc0ee158a9f" y="307.584"/>
      </g>
     </g>
     <g id="text_3">
      <!-- 0.0 -->
      <g transform="translate(204.757221 322.182437)scale(0.1 -0.1)">
       <use xlink:href="#DejaVuSans-30"/>
       <use x="63.623047" xlink:href="#DejaVuSans-2e"/>
       <use x="95.410156" xlink:href="#DejaVuSans-30"/>
      </g>
     </g>
    </g>
    <g id="xtick_4">
     <g id="line2d_7">
      <path clip-path="url(#p55b1cac4a2)" d="M 284.563608 307.584 
L 284.563608 41.472 
" style="fill:none;stroke:#b0b0b0;stroke-linecap:square;stroke-width:0.8;"/>
     </g>
     <g id="line2d_8">
      <g>
       <use style="stroke:#000000;stroke-width:0.8;" x="284.563608" xlink:href="#mc0ee158a9f" y="307.584"/>
      </g>
     </g>
     <g id="text_4">
      <!-- 0.2 -->
      <g transform="translate(276.612045 322.182437)scale(0.1 -0.1)">
       <use xlink:href="#DejaVuSans-30"/>
       <use x="63.623047" xlink:href="#DejaVuSans-2e"/>
       <use x="95.410156" xlink:href="#DejaVuSans-32"/>
      </g>
     </g>
    </g>
    <g id="xtick_5">
     <g id="line2d_9">
      <path clip-path="url(#p55b1cac4a2)" d="M 356.418432 307.584 
L 356.418432 41.472 
" style="fill:none;stroke:#b0b0b0;stroke-linecap:square;stroke-width:0.8;"/>
     </g>
     <g id="line2d_10">
      <g>
       <use style="stroke:#000000;stroke-width:0.8;" x="356.418432" xlink:href="#mc0ee158a9f" y="307.584"/>
      </g>
     </g>
     <g id="text_5">
      <!-- 0.4 -->
      <g transform="translate(348.46687 322.182437)scale(0.1 -0.1)">
       <use xlink:href="#DejaVuSans-30"/>
       <use x="63.623047" xlink:href="#DejaVuSans-2e"/>
       <use x="95.410156" xlink:href="#DejaVuSans-34"/>
      </g>
     </g>
    </g>
    <g id="text_6">
     <!-- x [m] -->
     <g transform="translate(222.839687 335.860562)scale(0.1 -0.1)">
      <defs>
       <path d="M 3513 3500 
L 2247 1797 
L 3578 0 
L 2900 0 
L 1881 1375 
L 863 0 
L 184 0 
L 1544 1831 
L 300 3500 
L 978 3500 
L 1906 2253 
L 2834 3500 
L 3513 3500 
z
" id="DejaVuSans-78" transform="scale(0.015625)"/>
       <path id="DejaVuSans-20" transform="scale(0.015625)"/>
       <path d="M 550 4863 
L 1875 4863 
L 1875 4416 
L 1125 4416 
L 1125 -397 
L 1875 -397 
L 1875 -844 
L 550 -844 
L 550 4863 
z
" id="DejaVuSans-5b" transform="scale(0.015625)"/>
       <path d="M 3328 2828 
Q 3544 3216 3844 3400 
Q 4144 3584 4550 3584 
Q 5097 3584 5394 3201 
Q 5691 2819 5691 2113 
L 5691 0 
L 5113 0 
L 5113 2094 
Q 5113 2597 4934 2840 
Q 4756 3084 4391 3084 
Q 3944 3084 3684 2787 
Q 3425 2491 3425 1978 
L 3425 0 
L 2847 0 
L 2847 2094 
Q 2847 2600 2669 2842 
Q 2491 3084 2119 3084 
Q 1678 3084 1418 2786 
Q 1159 2488 1159 1978 
L 1159 0 
L 581 0 
L 581 3500 
L 1159 3500 
L 1159 2956 
Q 1356 3278 1631 3431 
Q 1906 3584 2284 3584 
Q 2666 3584 2933 3390 
Q 3200 3197 3328 2828 
z
" id="DejaVuSans-6d" transform="scale(0.015625)"/>
       <path d="M 1947 4863 
L 1947 -844 
L 622 -844 
L 622 -397 
L 1369 -397 
L 1369 4416 
L 622 4416 
L 622 4863 
L 1947 4863 
z
" id="DejaVuSans-5d" transform="scale(0.015625)"/>
      </defs>
      <use xlink:href="#DejaVuSans-78"/>
      <use x="59.179688" xlink:href="#DejaVuSans-20"/>
      <use x="90.966797" xlink:href="#DejaVuSans-5b"/>
      <use x="129.980469" xlink:href="#DejaVuSans-6d"/>
      <use x="227.392578" xlink:href="#DejaVuSans-5d"/>
     </g>
    </g>
   </g>
   <g id="matplotlib.axis_2">
    <g id="ytick_1">
     <g id="line2d_11">
      <path clip-path="url(#p55b1cac4a2)" d="M 57.6 299.964753 
L 414.72 299.964753 
" style="fill:none;stroke:#b0b0b0;stroke-linecap:square;stroke-width:0.8;"/>
     </g>
     <g id="line2d_12">
      <defs>
       <path d="M 0 0 
L -3.5 0 
" id="me65d15e429" style="stroke:#000000;stroke-width:0.8;"/>
      </defs>
      <g>
       <use style="stroke:#000000;stroke-width:0.8;" x="57.6" xlink:href="#me65d15e429" y="299.964753"/>
      </g>
     </g>
     <g id="text_7">
      <!-- 0 -->
      <g transform="translate(44.2375 303.763971)scale(0.1 -0.1)">
       <use xlink:href="#DejaVuSans-30"/>
      </g>
     </g>
    </g>
    <g id="ytick_2">
     <g id="line2d_13">
      <path clip-path="url(#p55b1cac4a2)" d="M 57.6 242.728257 
L 414.72 242.728257 
" style="fill:none;stroke:#b0b0b0;stroke-linecap:square;stroke-width:0.8;"/>
     </g>
     <g id="line2d_14">
      <g>
       <use style="stroke:#000000;stroke-width:0.8;" x="57.6" xlink:href="#me65d15e429" y="242.728257"/>
      </g>
     </g>
     <g id="text_8">
      <!-- 10000 -->
      <g transform="translate(18.7875 246.527476)scale(0.1 -0.1)">
       <defs>
        <path d="M 794 531 
L 1825 531 
L 1825 4091 
L 703 3866 
L 703 4441 
L 1819 4666 
L 2450 4666 
L 2450 531 
L 3481 531 
L 3481 0 
L 794 0 
L 794 531 
z
" id="DejaVuSans-31" transform="scale(0.015625)"/>
       </defs>
       <use xlink:href="#DejaVuSans-31"/>
       <use x="63.623047" xlink:href="#DejaVuSans-30"/>
       <use x="127.246094" xlink:href="#DejaVuSans-30"/>
       <use x="190.869141" xlink:href="#DejaVuSans-30"/>
       <use x="254.492188" xlink:href="#DejaVuSans-30"/>
      </g>
     </g>
    </g>
    <g id="ytick_3">
     <g id="line2d_15">
      <path clip-path="url(#p55b1cac4a2)" d="M 57.6 185.491762 
L 414.72 185.491762 
" style="fill:none;stroke:#b0b0b0;stroke-linecap:square;stroke-width:0.8;"/>
     </g>
     <g id="line2d_16">
      <g>
       <use style="stroke:#000000;stroke-width:0.8;" x="57.6" xlink:href="#me65d15e429" y="185.491762"/>
      </g>
     </g>
     <g id="text_9">
      <!-- 20000 -->
      <g transform="translate(18.7875 189.290981)scale(0.1 -0.1)">
       <use xlink:href="#DejaVuSans-32"/>
       <use x="63.623047" xlink:href="#DejaVuSans-30"/>
       <use x="127.246094" xlink:href="#DejaVuSans-30"/>
       <use x="190.869141" xlink:href="#DejaVuSans-30"/>
       <use x="254.492188" xlink:href="#DejaVuSans-30"/>
      </g>
     </g>
    </g>
    <g id="ytick_4">
     <g id="line2d_17">
      <path clip-path="url(#p55b1cac4a2)" d="M 57.6 128.255267 
L 414.72 128.255267 
" style="fill:none;stroke:#b0b0b0;stroke-linecap:square;stroke-width:0.8;"/>
     </g>
     <g id="line2d_18">
      <g>
       <use style="stroke:#000000;stroke-width:0.8;" x="57.6" xlink:href="#me65d15e429" y="128.255267"/>
      </g>
     </g>
     <g id="text_10">
      <!-- 30000 -->
      <g transform="translate(18.7875 132.054485)scale(0.1 -0.1)">
       <defs>
        <path d="M 2597 2516 
Q 3050 2419 3304 2112 
Q 3559 1806 3559 1356 
Q 3559 666 3084 287 
Q 2609 -91 1734 -91 
Q 1441 -91 1130 -33 
Q 819 25 488 141 
L 488 750 
Q 750 597 1062 519 
Q 1375 441 1716 441 
Q 2309 441 2620 675 
Q 2931 909 2931 1356 
Q 2931 1769 2642 2001 
Q 2353 2234 1838 2234 
L 1294 2234 
L 1294 2753 
L 1863 2753 
Q 2328 2753 2575 2939 
Q 2822 3125 2822 3475 
Q 2822 3834 2567 4026 
Q 2313 4219 1838 4219 
Q 1578 4219 1281 4162 
Q 984 4106 628 3988 
L 628 4550 
Q 988 4650 1302 4700 
Q 1616 4750 1894 4750 
Q 2613 4750 3031 4423 
Q 3450 4097 3450 3541 
Q 3450 3153 3228 2886 
Q 3006 2619 2597 2516 
z
" id="DejaVuSans-33" transform="scale(0.015625)"/>
       </defs>
       <use xlink:href="#DejaVuSans-33"/>
       <use x="63.623047" xlink:href="#DejaVuSans-30"/>
       <use x="127.246094" xlink:href="#DejaVuSans-30"/>
       <use x="190.869141" xlink:href="#DejaVuSans-30"/>
       <use x="254.492188" xlink:href="#DejaVuSans-30"/>
      </g>
     </g>
    </g>
    <g id="ytick_5">
     <g id="line2d_19">
      <path clip-path="url(#p55b1cac4a2)" d="M 57.6 71.018771 
L 414.72 71.018771 
" style="fill:none;stroke:#b0b0b0;stroke-linecap:square;stroke-width:0.8;"/>
     </g>
     <g id="line2d_20">
      <g>
       <use style="stroke:#000000;stroke-width:0.8;" x="57.6" xlink:href="#me65d15e429" y="71.018771"/>
      </g>
     </g>
     <g id="text_11">
      <!-- 40000 -->
      <g transform="translate(18.7875 74.81799)scale(0.1 -0.1)">
       <use xlink:href="#DejaVuSans-34"/>
       <use x="63.623047" xlink:href="#DejaVuSans-30"/>
       <use x="127.246094" xlink:href="#DejaVuSans-30"/>
       <use x="190.869141" xlink:href="#DejaVuSans-30"/>
       <use x="254.492188" xlink:href="#DejaVuSans-30"/>
      </g>
     </g>
    </g>
    <g id="text_12">
     <!-- h [W/m^2/K] -->
     <g transform="translate(12.707812 207.020187)rotate(-90)scale(0.1 -0.1)">
      <defs>
       <path d="M 3513 2113 
L 3513 0 
L 2938 0 
L 2938 2094 
Q 2938 2591 2744 2837 
Q 2550 3084 2163 3084 
Q 1697 3084 1428 2787 
Q 1159 2491 1159 1978 
L 1159 0 
L 581 0 
L 581 4863 
L 1159 4863 
L 1159 2956 
Q 1366 3272 1645 3428 
Q 1925 3584 2291 3584 
Q 2894 3584 3203 3211 
Q 3513 2838 3513 2113 
z
" id="DejaVuSans-68" transform="scale(0.015625)"/>
       <path d="M 213 4666 
L 850 4666 
L 1831 722 
L 2809 4666 
L 3519 4666 
L 4500 722 
L 5478 4666 
L 6119 4666 
L 4947 0 
L 4153 0 
L 3169 4050 
L 2175 0 
L 1381 0 
L 213 4666 
z
" id="DejaVuSans-57" transform="scale(0.015625)"/>
       <path d="M 1625 4666 
L 2156 4666 
L 531 -594 
L 0 -594 
L 1625 4666 
z
" id="DejaVuSans-2f" transform="scale(0.015625)"/>
       <path d="M 2988 4666 
L 4684 2925 
L 4056 2925 
L 2681 4159 
L 1306 2925 
L 678 2925 
L 2375 4666 
L 2988 4666 
z
" id="DejaVuSans-5e" transform="scale(0.015625)"/>
       <path d="M 628 4666 
L 1259 4666 
L 1259 2694 
L 3353 4666 
L 4166 4666 
L 1850 2491 
L 4331 0 
L 3500 0 
L 1259 2247 
L 1259 0 
L 628 0 
L 628 4666 
z
" id="DejaVuSans-4b" transform="scale(0.015625)"/>
      </defs>
      <use xlink:href="#DejaVuSans-68"/>
      <use x="63.378906" xlink:href="#DejaVuSans-20"/>
      <use x="95.166016" xlink:href="#DejaVuSans-5b"/>
      <use x="134.179688" xlink:href="#DejaVuSans-57"/>
      <use x="233.056641" xlink:href="#DejaVuSans-2f"/>
      <use x="266.748047" xlink:href="#DejaVuSans-6d"/>
      <use x="364.160156" xlink:href="#DejaVuSans-5e"/>
      <use x="447.949219" xlink:href="#DejaVuSans-32"/>
      <use x="511.572266" xlink:href="#DejaVuSans-2f"/>
      <use x="545.263672" xlink:href="#DejaVuSans-4b"/>
      <use x="610.839844" xlink:href="#DejaVuSans-5d"/>
     </g>
    </g>
   </g>
   <g id="line2d_21">
    <path clip-path="url(#p55b1cac4a2)" d="M 398.487273 284.491636 
L 385.02274 282.747303 
L 372.840544 280.945506 
L 361.940685 279.109689 
L 352.002577 277.210196 
L 343.026222 275.270098 
L 334.370452 273.164184 
L 326.676433 271.094485 
L 319.623583 268.971382 
L 313.211901 266.820507 
L 307.120803 264.552209 
L 301.350289 262.171864 
L 295.900359 259.687753 
L 290.771013 257.111464 
L 285.962252 254.458259 
L 280.832906 251.370723 
L 276.344728 248.401008 
L 272.177135 245.363678 
L 268.330126 242.278617 
L 264.803701 239.173127 
L 261.277275 235.757917 
L 258.071434 232.340559 
L 254.865593 228.576405 
L 251.980336 224.845723 
L 249.095079 220.752469 
L 246.209822 216.26479 
L 243.324566 211.351506 
L 240.439309 206.011006 
L 237.554052 200.174927 
L 234.668795 193.806079 
L 231.783538 186.867976 
L 228.898281 179.326624 
L 226.013024 171.153016 
L 223.127767 162.32652 
L 219.280758 150.298825 
L 217.998421 147.267144 
L 217.036669 145.50484 
L 216.074917 144.15022 
L 215.113164 143.163671 
L 214.151412 142.489745 
L 213.18966 142.065037 
L 211.665648 141.698641 
L 210.413886 141.711148 
L 209.023039 141.968051 
L 207.632192 142.45768 
L 206.241346 143.179958 
L 204.711414 144.218328 
L 202.903313 145.736305 
L 200.956128 147.670119 
L 198.591688 150.353561 
L 196.088164 153.546843 
L 193.445555 157.292407 
L 190.663861 161.620939 
L 187.464913 167.032315 
L 183.987796 173.364233 
L 180.093425 180.929392 
L 176.059969 189.225491 
L 165.628618 211.266811 
L 163.125094 216.045652 
L 161.038824 219.555151 
L 158.674384 223.082035 
L 156.449029 226.011833 
L 154.362759 228.41059 
L 152.415573 230.324788 
L 150.885642 231.557228 
L 149.63388 232.307864 
L 148.799371 232.583719 
L 147.547609 232.656483 
L 110.411999 232.799486 
L 104.709527 232.848958 
L 73.832727 232.81404 
L 73.832727 232.81404 
" style="fill:none;stroke:#1f77b4;stroke-linecap:square;stroke-width:1.5;"/>
   </g>
   <g id="line2d_22">
    <path clip-path="url(#p55b1cac4a2)" d="M 398.487273 192.443513 
L 391.113838 192.298345 
L 384.060988 191.935452 
L 377.328722 191.367276 
L 370.91704 190.607314 
L 364.825942 189.670075 
L 358.734844 188.503623 
L 352.96433 187.166547 
L 347.5144 185.675344 
L 342.385054 184.048031 
L 337.255709 182.179981 
L 335.332204 181.529533 
L 329.56169 180.073819 
L 323.791176 178.387817 
L 318.341246 176.562646 
L 313.211901 174.616658 
L 308.082555 172.426194 
L 303.273793 170.127245 
L 298.785616 167.744683 
L 294.297438 165.109168 
L 290.129845 162.411366 
L 285.962252 159.446031 
L 283.397579 157.640987 
L 278.909401 154.889607 
L 274.741808 152.084717 
L 270.574215 149.006397 
L 266.727205 145.888491 
L 263.20078 142.764657 
L 259.674355 139.350903 
L 256.14793 135.605364 
L 252.942089 131.870062 
L 249.736248 127.780062 
L 246.530407 123.303071 
L 238.19522 110.888458 
L 234.989379 105.646364 
L 231.783538 99.989807 
L 228.577697 93.908502 
L 225.051271 86.725647 
L 221.204262 78.333263 
L 219.280758 74.337826 
L 217.998421 72.167609 
L 216.716085 70.442642 
L 215.433748 69.117342 
L 214.151412 68.12509 
L 212.869075 67.381259 
L 212.500156 67.323683 
L 210.970225 66.68774 
L 208.188531 65.657993 
L 206.519515 65.08601 
L 204.711414 64.712691 
L 202.903313 64.568262 
L 200.956128 64.635095 
L 198.730773 64.94883 
L 196.505418 65.496466 
L 194.280063 66.282059 
L 192.054708 67.307387 
L 189.829353 68.570977 
L 187.464913 70.169239 
L 184.961389 72.14357 
L 182.457865 74.411655 
L 179.815256 77.122683 
L 177.172647 80.151111 
L 173.69553 88.456088 
L 169.383905 99.359139 
L 161.734247 118.868964 
L 159.091638 124.714996 
L 156.449029 130.03599 
L 154.084589 134.297384 
L 152.137404 137.379182 
L 150.607472 139.416736 
L 149.494795 140.562394 
L 148.799371 141.014298 
L 147.686694 141.33566 
L 145.600424 141.758229 
L 143.792323 140.65518 
L 133.778226 139.96664 
L 123.485959 139.479721 
L 113.610947 139.232523 
L 111.802846 139.290068 
L 109.438406 140.363344 
L 108.603898 140.737677 
L 93.304583 138.334271 
L 78.422522 136.220591 
L 73.832727 135.547205 
L 73.832727 135.547205 
" style="fill:none;stroke:#ff7f0e;stroke-linecap:square;stroke-width:1.5;"/>
   </g>
   <g id="line2d_23">
    <path clip-path="url(#p55b1cac4a2)" d="M 398.487273 53.568 
L 382.137483 73.561894 
L 365.787694 93.912301 
L 349.11732 115.022255 
L 333.088115 135.675933 
L 318.341246 155.036302 
L 302.632625 176.049297 
L 278.268233 209.070531 
L 266.406621 225.4341 
L 257.430266 238.192769 
L 249.415664 249.978177 
L 232.104122 275.61138 
L 226.333608 283.676165 
L 221.524846 290.024968 
L 219.601342 292.260686 
L 218.319005 293.408554 
L 217.036669 294.249347 
L 215.754332 294.826447 
L 214.471996 295.187368 
L 212.639241 295.435769 
L 210.552971 295.477511 
L 208.327616 295.288901 
L 206.102261 294.880292 
L 203.598737 294.18391 
L 200.956128 293.20893 
L 198.035349 291.88287 
L 195.253656 290.379268 
L 192.471962 288.620436 
L 189.690268 286.585899 
L 187.047659 284.379015 
L 184.40505 281.88198 
L 181.901526 279.219529 
L 179.398002 276.239478 
L 176.894477 272.913568 
L 174.390953 269.216341 
L 171.748344 264.902763 
L 169.105735 260.166736 
L 166.324042 254.724807 
L 158.813469 239.623268 
L 155.614521 233.781742 
L 153.250081 229.875885 
L 151.44198 227.28023 
L 150.190218 225.827068 
L 149.35571 225.120202 
L 148.799371 224.86604 
L 147.825779 224.774584 
L 119.591588 224.817229 
L 73.832727 224.817229 
L 73.832727 224.817229 
" style="fill:none;stroke:#808080;stroke-dasharray:5.55,2.4;stroke-dashoffset:0;stroke-width:1.5;"/>
   </g>
   <g id="patch_3">
    <path d="M 57.6 307.584 
L 57.6 41.472 
" style="fill:none;stroke:#000000;stroke-linecap:square;stroke-linejoin:miter;stroke-width:0.8;"/>
   </g>
   <g id="patch_4">
    <path d="M 414.72 307.584 
L 414.72 41.472 
" style="fill:none;stroke:#000000;stroke-linecap:square;stroke-linejoin:miter;stroke-width:0.8;"/>
   </g>
   <g id="patch_5">
    <path d="M 57.6 307.584 
L 414.72 307.584 
" style="fill:none;stroke:#000000;stroke-linecap:square;stroke-linejoin:miter;stroke-width:0.8;"/>
   </g>
   <g id="patch_6">
    <path d="M 57.6 41.472 
L 414.72 41.472 
" style="fill:none;stroke:#000000;stroke-linecap:square;stroke-linejoin:miter;stroke-width:0.8;"/>
   </g>
   <g id="legend_1">
    <g id="patch_7">
     <path d="M 64.6 93.506375 
L 316.520313 93.506375 
Q 318.520313 93.506375 318.520313 91.506375 
L 318.520313 48.472 
Q 318.520313 46.472 316.520313 46.472 
L 64.6 46.472 
Q 62.6 46.472 62.6 48.472 
L 62.6 91.506375 
Q 62.6 93.506375 64.6 93.506375 
z
" style="fill:#ffffff;opacity:0.8;stroke:#cccccc;stroke-linejoin:miter;"/>
    </g>
    <g id="line2d_24">
     <path d="M 66.6 54.570438 
L 86.6 54.570438 
" style="fill:none;stroke:#1f77b4;stroke-linecap:square;stroke-width:1.5;"/>
    </g>
    <g id="line2d_25"/>
    <g id="text_13">
     <!-- heat convection coeff. combustion chamber -->
     <g transform="translate(94.6 58.070438)scale(0.1 -0.1)">
      <defs>
       <path d="M 3597 1894 
L 3597 1613 
L 953 1613 
Q 991 1019 1311 708 
Q 1631 397 2203 397 
Q 2534 397 2845 478 
Q 3156 559 3463 722 
L 3463 178 
Q 3153 47 2828 -22 
Q 2503 -91 2169 -91 
Q 1331 -91 842 396 
Q 353 884 353 1716 
Q 353 2575 817 3079 
Q 1281 3584 2069 3584 
Q 2775 3584 3186 3129 
Q 3597 2675 3597 1894 
z
M 3022 2063 
Q 3016 2534 2758 2815 
Q 2500 3097 2075 3097 
Q 1594 3097 1305 2825 
Q 1016 2553 972 2059 
L 3022 2063 
z
" id="DejaVuSans-65" transform="scale(0.015625)"/>
       <path d="M 2194 1759 
Q 1497 1759 1228 1600 
Q 959 1441 959 1056 
Q 959 750 1161 570 
Q 1363 391 1709 391 
Q 2188 391 2477 730 
Q 2766 1069 2766 1631 
L 2766 1759 
L 2194 1759 
z
M 3341 1997 
L 3341 0 
L 2766 0 
L 2766 531 
Q 2569 213 2275 61 
Q 1981 -91 1556 -91 
Q 1019 -91 701 211 
Q 384 513 384 1019 
Q 384 1609 779 1909 
Q 1175 2209 1959 2209 
L 2766 2209 
L 2766 2266 
Q 2766 2663 2505 2880 
Q 2244 3097 1772 3097 
Q 1472 3097 1187 3025 
Q 903 2953 641 2809 
L 641 3341 
Q 956 3463 1253 3523 
Q 1550 3584 1831 3584 
Q 2591 3584 2966 3190 
Q 3341 2797 3341 1997 
z
" id="DejaVuSans-61" transform="scale(0.015625)"/>
       <path d="M 1172 4494 
L 1172 3500 
L 2356 3500 
L 2356 3053 
L 1172 3053 
L 1172 1153 
Q 1172 725 1289 603 
Q 1406 481 1766 481 
L 2356 481 
L 2356 0 
L 1766 0 
Q 1100 0 847 248 
Q 594 497 594 1153 
L 594 3053 
L 172 3053 
L 172 3500 
L 594 3500 
L 594 4494 
L 1172 4494 
z
" id="DejaVuSans-74" transform="scale(0.015625)"/>
       <path d="M 3122 3366 
L 3122 2828 
Q 2878 2963 2633 3030 
Q 2388 3097 2138 3097 
Q 1578 3097 1268 2742 
Q 959 2388 959 1747 
Q 959 1106 1268 751 
Q 1578 397 2138 397 
Q 2388 397 2633 464 
Q 2878 531 3122 666 
L 3122 134 
Q 2881 22 2623 -34 
Q 2366 -91 2075 -91 
Q 1284 -91 818 406 
Q 353 903 353 1747 
Q 353 2603 823 3093 
Q 1294 3584 2113 3584 
Q 2378 3584 2631 3529 
Q 2884 3475 3122 3366 
z
" id="DejaVuSans-63" transform="scale(0.015625)"/>
       <path d="M 1959 3097 
Q 1497 3097 1228 2736 
Q 959 2375 959 1747 
Q 959 1119 1226 758 
Q 1494 397 1959 397 
Q 2419 397 2687 759 
Q 2956 1122 2956 1747 
Q 2956 2369 2687 2733 
Q 2419 3097 1959 3097 
z
M 1959 3584 
Q 2709 3584 3137 3096 
Q 3566 2609 3566 1747 
Q 3566 888 3137 398 
Q 2709 -91 1959 -91 
Q 1206 -91 779 398 
Q 353 888 353 1747 
Q 353 2609 779 3096 
Q 1206 3584 1959 3584 
z
" id="DejaVuSans-6f" transform="scale(0.015625)"/>
       <path d="M 3513 2113 
L 3513 0 
L 2938 0 
L 2938 2094 
Q 2938 2591 2744 2837 
Q 2550 3084 2163 3084 
Q 1697 3084 1428 2787 
Q 1159 2491 1159 1978 
L 1159 0 
L 581 0 
L 581 3500 
L 1159 3500 
L 1159 2956 
Q 1366 3272 1645 3428 
Q 1925 3584 2291 3584 
Q 2894 3584 3203 3211 
Q 3513 2838 3513 2113 
z
" id="DejaVuSans-6e" transform="scale(0.015625)"/>
       <path d="M 191 3500 
L 800 3500 
L 1894 563 
L 2988 3500 
L 3597 3500 
L 2284 0 
L 1503 0 
L 191 3500 
z
" id="DejaVuSans-76" transform="scale(0.015625)"/>
       <path d="M 603 3500 
L 1178 3500 
L 1178 0 
L 603 0 
L 603 3500 
z
M 603 4863 
L 1178 4863 
L 1178 4134 
L 603 4134 
L 603 4863 
z
" id="DejaVuSans-69" transform="scale(0.015625)"/>
       <path d="M 2375 4863 
L 2375 4384 
L 1825 4384 
Q 1516 4384 1395 4259 
Q 1275 4134 1275 3809 
L 1275 3500 
L 2222 3500 
L 2222 3053 
L 1275 3053 
L 1275 0 
L 697 0 
L 697 3053 
L 147 3053 
L 147 3500 
L 697 3500 
L 697 3744 
Q 697 4328 969 4595 
Q 1241 4863 1831 4863 
L 2375 4863 
z
" id="DejaVuSans-66" transform="scale(0.015625)"/>
       <path d="M 3116 1747 
Q 3116 2381 2855 2742 
Q 2594 3103 2138 3103 
Q 1681 3103 1420 2742 
Q 1159 2381 1159 1747 
Q 1159 1113 1420 752 
Q 1681 391 2138 391 
Q 2594 391 2855 752 
Q 3116 1113 3116 1747 
z
M 1159 2969 
Q 1341 3281 1617 3432 
Q 1894 3584 2278 3584 
Q 2916 3584 3314 3078 
Q 3713 2572 3713 1747 
Q 3713 922 3314 415 
Q 2916 -91 2278 -91 
Q 1894 -91 1617 61 
Q 1341 213 1159 525 
L 1159 0 
L 581 0 
L 581 4863 
L 1159 4863 
L 1159 2969 
z
" id="DejaVuSans-62" transform="scale(0.015625)"/>
       <path d="M 544 1381 
L 544 3500 
L 1119 3500 
L 1119 1403 
Q 1119 906 1312 657 
Q 1506 409 1894 409 
Q 2359 409 2629 706 
Q 2900 1003 2900 1516 
L 2900 3500 
L 3475 3500 
L 3475 0 
L 2900 0 
L 2900 538 
Q 2691 219 2414 64 
Q 2138 -91 1772 -91 
Q 1169 -91 856 284 
Q 544 659 544 1381 
z
M 1991 3584 
L 1991 3584 
z
" id="DejaVuSans-75" transform="scale(0.015625)"/>
       <path d="M 2834 3397 
L 2834 2853 
Q 2591 2978 2328 3040 
Q 2066 3103 1784 3103 
Q 1356 3103 1142 2972 
Q 928 2841 928 2578 
Q 928 2378 1081 2264 
Q 1234 2150 1697 2047 
L 1894 2003 
Q 2506 1872 2764 1633 
Q 3022 1394 3022 966 
Q 3022 478 2636 193 
Q 2250 -91 1575 -91 
Q 1294 -91 989 -36 
Q 684 19 347 128 
L 347 722 
Q 666 556 975 473 
Q 1284 391 1588 391 
Q 1994 391 2212 530 
Q 2431 669 2431 922 
Q 2431 1156 2273 1281 
Q 2116 1406 1581 1522 
L 1381 1569 
Q 847 1681 609 1914 
Q 372 2147 372 2553 
Q 372 3047 722 3315 
Q 1072 3584 1716 3584 
Q 2034 3584 2315 3537 
Q 2597 3491 2834 3397 
z
" id="DejaVuSans-73" transform="scale(0.015625)"/>
       <path d="M 2631 2963 
Q 2534 3019 2420 3045 
Q 2306 3072 2169 3072 
Q 1681 3072 1420 2755 
Q 1159 2438 1159 1844 
L 1159 0 
L 581 0 
L 581 3500 
L 1159 3500 
L 1159 2956 
Q 1341 3275 1631 3429 
Q 1922 3584 2338 3584 
Q 2397 3584 2469 3576 
Q 2541 3569 2628 3553 
L 2631 2963 
z
" id="DejaVuSans-72" transform="scale(0.015625)"/>
      </defs>
      <use xlink:href="#DejaVuSans-68"/>
      <use x="63.378906" xlink:href="#DejaVuSans-65"/>
      <use x="124.902344" xlink:href="#DejaVuSans-61"/>
      <use x="186.181641" xlink:href="#DejaVuSans-74"/>
      <use x="225.390625" xlink:href="#DejaVuSans-20"/>
      <use x="257.177734" xlink:href="#DejaVuSans-63"/>
      <use x="312.158203" xlink:href="#DejaVuSans-6f"/>
      <use x="373.339844" xlink:href="#DejaVuSans-6e"/>
      <use x="436.71875" xlink:href="#DejaVuSans-76"/>
      <use x="495.898438" xlink:href="#DejaVuSans-65"/>
      <use x="557.421875" xlink:href="#DejaVuSans-63"/>
      <use x="612.402344" xlink:href="#DejaVuSans-74"/>
      <use x="651.611328" xlink:href="#DejaVuSans-69"/>
      <use x="679.394531" xlink:href="#DejaVuSans-6f"/>
      <use x="740.576172" xlink:href="#DejaVuSans-6e"/>
      <use x="803.955078" xlink:href="#DejaVuSans-20"/>
      <use x="835.742188" xlink:href="#DejaVuSans-63"/>
      <use x="890.722656" xlink:href="#DejaVuSans-6f"/>
      <use x="951.904297" xlink:href="#DejaVuSans-65"/>
      <use x="1013.427734" xlink:href="#DejaVuSans-66"/>
      <use x="1048.632812" xlink:href="#DejaVuSans-66"/>
      <use x="1076.587891" xlink:href="#DejaVuSans-2e"/>
      <use x="1108.375" xlink:href="#DejaVuSans-20"/>
      <use x="1140.162109" xlink:href="#DejaVuSans-63"/>
      <use x="1195.142578" xlink:href="#DejaVuSans-6f"/>
      <use x="1256.324219" xlink:href="#DejaVuSans-6d"/>
      <use x="1353.736328" xlink:href="#DejaVuSans-62"/>
      <use x="1417.212891" xlink:href="#DejaVuSans-75"/>
      <use x="1480.591797" xlink:href="#DejaVuSans-73"/>
      <use x="1532.691406" xlink:href="#DejaVuSans-74"/>
      <use x="1571.900391" xlink:href="#DejaVuSans-69"/>
      <use x="1599.683594" xlink:href="#DejaVuSans-6f"/>
      <use x="1660.865234" xlink:href="#DejaVuSans-6e"/>
      <use x="1724.244141" xlink:href="#DejaVuSans-20"/>
      <use x="1756.03125" xlink:href="#DejaVuSans-63"/>
      <use x="1811.011719" xlink:href="#DejaVuSans-68"/>
      <use x="1874.390625" xlink:href="#DejaVuSans-61"/>
      <use x="1935.669922" xlink:href="#DejaVuSans-6d"/>
      <use x="2033.082031" xlink:href="#DejaVuSans-62"/>
      <use x="2096.558594" xlink:href="#DejaVuSans-65"/>
      <use x="2158.082031" xlink:href="#DejaVuSans-72"/>
     </g>
    </g>
    <g id="line2d_26">
     <path d="M 66.6 69.248563 
L 86.6 69.248563 
" style="fill:none;stroke:#ff7f0e;stroke-linecap:square;stroke-width:1.5;"/>
    </g>
    <g id="line2d_27"/>
    <g id="text_14">
     <!-- heat convection coeff. cooling channel -->
     <g transform="translate(94.6 72.748563)scale(0.1 -0.1)">
      <defs>
       <path d="M 603 4863 
L 1178 4863 
L 1178 0 
L 603 0 
L 603 4863 
z
" id="DejaVuSans-6c" transform="scale(0.015625)"/>
       <path d="M 2906 1791 
Q 2906 2416 2648 2759 
Q 2391 3103 1925 3103 
Q 1463 3103 1205 2759 
Q 947 2416 947 1791 
Q 947 1169 1205 825 
Q 1463 481 1925 481 
Q 2391 481 2648 825 
Q 2906 1169 2906 1791 
z
M 3481 434 
Q 3481 -459 3084 -895 
Q 2688 -1331 1869 -1331 
Q 1566 -1331 1297 -1286 
Q 1028 -1241 775 -1147 
L 775 -588 
Q 1028 -725 1275 -790 
Q 1522 -856 1778 -856 
Q 2344 -856 2625 -561 
Q 2906 -266 2906 331 
L 2906 616 
Q 2728 306 2450 153 
Q 2172 0 1784 0 
Q 1141 0 747 490 
Q 353 981 353 1791 
Q 353 2603 747 3093 
Q 1141 3584 1784 3584 
Q 2172 3584 2450 3431 
Q 2728 3278 2906 2969 
L 2906 3500 
L 3481 3500 
L 3481 434 
z
" id="DejaVuSans-67" transform="scale(0.015625)"/>
      </defs>
      <use xlink:href="#DejaVuSans-68"/>
      <use x="63.378906" xlink:href="#DejaVuSans-65"/>
      <use x="124.902344" xlink:href="#DejaVuSans-61"/>
      <use x="186.181641" xlink:href="#DejaVuSans-74"/>
      <use x="225.390625" xlink:href="#DejaVuSans-20"/>
      <use x="257.177734" xlink:href="#DejaVuSans-63"/>
      <use x="312.158203" xlink:href="#DejaVuSans-6f"/>
      <use x="373.339844" xlink:href="#DejaVuSans-6e"/>
      <use x="436.71875" xlink:href="#DejaVuSans-76"/>
      <use x="495.898438" xlink:href="#DejaVuSans-65"/>
      <use x="557.421875" xlink:href="#DejaVuSans-63"/>
      <use x="612.402344" xlink:href="#DejaVuSans-74"/>
      <use x="651.611328" xlink:href="#DejaVuSans-69"/>
      <use x="679.394531" xlink:href="#DejaVuSans-6f"/>
      <use x="740.576172" xlink:href="#DejaVuSans-6e"/>
      <use x="803.955078" xlink:href="#DejaVuSans-20"/>
      <use x="835.742188" xlink:href="#DejaVuSans-63"/>
      <use x="890.722656" xlink:href="#DejaVuSans-6f"/>
      <use x="951.904297" xlink:href="#DejaVuSans-65"/>
      <use x="1013.427734" xlink:href="#DejaVuSans-66"/>
      <use x="1048.632812" xlink:href="#DejaVuSans-66"/>
      <use x="1076.587891" xlink:href="#DejaVuSans-2e"/>
      <use x="1108.375" xlink:href="#DejaVuSans-20"/>
      <use x="1140.162109" xlink:href="#DejaVuSans-63"/>
      <use x="1195.142578" xlink:href="#DejaVuSans-6f"/>
      <use x="1256.324219" xlink:href="#DejaVuSans-6f"/>
      <use x="1317.505859" xlink:href="#DejaVuSans-6c"/>
      <use x="1345.289062" xlink:href="#DejaVuSans-69"/>
      <use x="1373.072266" xlink:href="#DejaVuSans-6e"/>
      <use x="1436.451172" xlink:href="#DejaVuSans-67"/>
      <use x="1499.927734" xlink:href="#DejaVuSans-20"/>
      <use x="1531.714844" xlink:href="#DejaVuSans-63"/>
      <use x="1586.695312" xlink:href="#DejaVuSans-68"/>
      <use x="1650.074219" xlink:href="#DejaVuSans-61"/>
      <use x="1711.353516" xlink:href="#DejaVuSans-6e"/>
      <use x="1774.732422" xlink:href="#DejaVuSans-6e"/>
      <use x="1838.111328" xlink:href="#DejaVuSans-65"/>
      <use x="1899.634766" xlink:href="#DejaVuSans-6c"/>
     </g>
    </g>
    <g id="line2d_28">
     <path d="M 66.6 83.926688 
L 86.6 83.926688 
" style="fill:none;stroke:#808080;stroke-dasharray:5.55,2.4;stroke-dashoffset:0;stroke-width:1.5;"/>
    </g>
    <g id="line2d_29"/>
    <g id="text_15">
     <!-- nozzle profile -->
     <g transform="translate(94.6 87.426688)scale(0.1 -0.1)">
      <defs>
       <path d="M 353 3500 
L 3084 3500 
L 3084 2975 
L 922 459 
L 3084 459 
L 3084 0 
L 275 0 
L 275 525 
L 2438 3041 
L 353 3041 
L 353 3500 
z
" id="DejaVuSans-7a" transform="scale(0.015625)"/>
       <path d="M 1159 525 
L 1159 -1331 
L 581 -1331 
L 581 3500 
L 1159 3500 
L 1159 2969 
Q 1341 3281 1617 3432 
Q 1894 3584 2278 3584 
Q 2916 3584 3314 3078 
Q 3713 2572 3713 1747 
Q 3713 922 3314 415 
Q 2916 -91 2278 -91 
Q 1894 -91 1617 61 
Q 1341 213 1159 525 
z
M 3116 1747 
Q 3116 2381 2855 2742 
Q 2594 3103 2138 3103 
Q 1681 3103 1420 2742 
Q 1159 2381 1159 1747 
Q 1159 1113 1420 752 
Q 1681 391 2138 391 
Q 2594 391 2855 752 
Q 3116 1113 3116 1747 
z
" id="DejaVuSans-70" transform="scale(0.015625)"/>
      </defs>
      <use xlink:href="#DejaVuSans-6e"/>
      <use x="63.378906" xlink:href="#DejaVuSans-6f"/>
      <use x="124.560547" xlink:href="#DejaVuSans-7a"/>
      <use x="177.050781" xlink:href="#DejaVuSans-7a"/>
      <use x="229.541016" xlink:href="#DejaVuSans-6c"/>
      <use x="257.324219" xlink:href="#DejaVuSans-65"/>
      <use x="318.847656" xlink:href="#DejaVuSans-20"/>
      <use x="350.634766" xlink:href="#DejaVuSans-70"/>
      <use x="414.111328" xlink:href="#DejaVuSans-72"/>
      <use x="452.974609" xlink:href="#DejaVuSans-6f"/>
      <use x="514.15625" xlink:href="#DejaVuSans-66"/>
      <use x="549.361328" xlink:href="#DejaVuSans-69"/>
      <use x="577.144531" xlink:href="#DejaVuSans-6c"/>
      <use x="604.927734" xlink:href="#DejaVuSans-65"/>
     </g>
    </g>
   </g>
  </g>
 </g>
 <defs>
  <clipPath id="p55b1cac4a2">
   <rect height="266.112" width="357.12" x="57.6" y="41.472"/>
  </clipPath>
 </defs>
</svg>
